<svg id="Layer_5" enable-background="new 0 0 64 64" height="512" viewBox="0 0 64 64" width="512" xmlns="http://www.w3.org/2000/svg"><g><g><g><path d="m48 54v8h-42c-1.1 0-2.1-.45-2.83-1.17-.69-.7-1.13-1.64-1.16-2.68l2.99-.15h2 2 35v-4z" fill="#f0d0b4"/></g><g><path d="m44 54v4h-35-2-2l-2.99.15c-.01-.05-.01-.1-.01-.15 0-2.21 1.79-4 4-4h4z" fill="#f0d0b4"/></g><g><path d="m6 54c-2.21 0-4 1.79-4 4v-52c0-2.21 1.79-4 4-4h4v12 40z" fill="#cf9e76"/></g><g><path d="m10 14v40h34 4 2v-40z" fill="#e6e9ed"/></g><g><path d="m50 2v12h-40v-12z" fill="#5cd6b3"/></g><g><path d="m38 6h8v4h-8z" fill="#fcd770"/></g><g><path d="m26 7v2c0 .552-.448 1-1 1h-10c-.552 0-1-.448-1-1v-2c0-.552.448-1 1-1h10c.552 0 1 .448 1 1z" fill="#e6e9ed"/></g><g><path d="m38 44h8v6h-8z" fill="#5cd6b3"/></g><g><path d="m60.83 27.17c.72.73 1.17 1.73 1.17 2.83 0 2.21-1.79 4-4 4h-8-2c-1.1 0-2-.9-2-2v-1-2-1c0-1.1.9-2 2-2h2 8c1.1 0 2.1.45 2.83 1.17z" fill="#969faa"/></g><g><path d="m46 29v2c0 .55-.45 1-1 1h-3.17c.11-.65.17-1.32.17-2s-.06-1.35-.17-2h3.17c.55 0 1 .45 1 1z" fill="#ccd1d9"/></g><g><path d="m41.83 28c.11.65.17 1.32.17 2s-.06 1.35-.17 2c-.95 5.68-5.88 10-11.83 10-6.63 0-12-5.37-12-12s5.37-12 12-12c5.95 0 10.88 4.32 11.83 10z" fill="#fcd770"/></g><g><circle cx="30" cy="30" fill="#69d6f4" r="8"/></g></g><g><path d="m5 57h2v2h-2z"/><path d="m30 21c-4.963 0-9 4.037-9 9s4.037 9 9 9 9-4.037 9-9-4.037-9-9-9zm0 16c-3.859 0-7-3.141-7-7s3.141-7 7-7 7 3.141 7 7-3.141 7-7 7z"/><path d="m29 25h2v2h-2z"/><path d="m29 29h2v2h-2z"/><path d="m29 33h2v2h-2z"/><path d="m58 25h-7v-24h-45c-2.757 0-5 2.243-5 5v52c0 2.757 2.243 5 5 5h43v-8h2v-20h7c2.757 0 5-2.243 5-5s-2.243-5-5-5zm-9-12h-38v-10h38zm-43-10h3v50h-3c-1.13 0-2.162.391-3 1.026v-48.026c0-1.654 1.346-3 3-3zm41 58h-41c-1.654 0-3-1.346-3-3s1.346-3 3-3h37v2h-34v2h36v-4h2zm2-8h-38v-38h38v10h-1c-1.309 0-2.412.847-2.821 2.018-.06-.005-.118-.018-.179-.018h-2.363c-1.36-5.724-6.503-10-12.637-10-7.168 0-13 5.832-13 13s5.832 13 13 13c6.134 0 11.277-4.276 12.637-10h2.363c.061 0 .119-.013.179-.018.409 1.171 1.512 2.018 2.821 2.018h1zm-6.051-24h2.051v2h-2.051c.026-.331.051-.662.051-1s-.025-.669-.051-1zm-1.949 1c0 6.065-4.935 11-11 11s-11-4.935-11-11 4.935-11 11-11 11 4.935 11 11zm17 3h-10c-.552 0-1-.448-1-1v-1-2-1c0-.552.448-1 1-1h10c1.654 0 3 1.346 3 3s-1.346 3-3 3z"/><path d="m15 11h10c1.103 0 2-.897 2-2v-2c0-1.103-.897-2-2-2h-10c-1.103 0-2 .897-2 2v2c0 1.103.897 2 2 2zm4-2v-2h2v2zm6.002 0h-2.002v-2h2zm-10.002-2h2v2h-2z"/><path d="m37 51h10v-8h-10zm2-6h6v4h-6z"/><path d="m13 49h2v2h-2z"/><path d="m17 49h18v2h-18z"/><path d="m13 45h18v2h-18z"/><path d="m33 45h2v2h-2z"/><path d="m47 5h-10v6h10zm-2 4h-6v-2h6z"/></g></g></svg>