<?xml version="1.0" encoding="iso-8859-1"?>
<!-- Generator: Adobe Illustrator 19.0.0, SVG Export Plug-In . SVG Version: 6.00 Build 0)  -->
<svg version="1.1" id="Capa_1" xmlns="http://www.w3.org/2000/svg" xmlns:xlink="http://www.w3.org/1999/xlink" x="0px" y="0px"
	 viewBox="0 0 464.001 464.001" style="enable-background:new 0 0 464.001 464.001;" xml:space="preserve">
<path style="fill:#B3E4E8;" d="M144,368v-48l-48,48H32c-17.673,0-32,14.327-32,32v16c0,17.673,14.327,32,32,32h112
	c17.673,0,32-14.327,32-32v-16C176,382.327,161.673,368,144,368z"/>
<path style="fill:#F9D7C0;" d="M192,120v88l-38.4,51.2c-2.651,3.535-1.935,8.549,1.6,11.2c1.385,1.039,3.069,1.6,4.8,1.6h32v32
	c0,30.928,25.072,56,56,56h56v88h104V120H192z"/>
<g>
	<circle style="fill:#F7BA61;" cx="40" cy="408" r="16"/>
	<circle style="fill:#F7BA61;" cx="88" cy="408" r="16"/>
	<circle style="fill:#F7BA61;" cx="136" cy="408" r="16"/>
</g>
<path style="fill:#8F563B;" d="M344,48H197.6c-3.635,0.002-7.161-1.234-10-3.504L152,16v56c0,35.346,28.654,64,64,64h96v64
	c0,48.601,39.399,88,88,88h8l15.416-15.416c16.047-15.786,27.792-35.413,34.12-57.016c4.342-15.481,6.518-31.489,6.464-47.568
	C464,101.726,410.274,48,344,48z"/>
<path style="fill:#F9D7C0;" d="M332,248h-28v-56h28c14.331-1.017,26.814,9.682,28,24v8C358.814,238.318,346.331,249.018,332,248z"/>
<circle style="fill:#8F563B;" cx="248" cy="200" r="16"/>
<g>
</g>
<g>
</g>
<g>
</g>
<g>
</g>
<g>
</g>
<g>
</g>
<g>
</g>
<g>
</g>
<g>
</g>
<g>
</g>
<g>
</g>
<g>
</g>
<g>
</g>
<g>
</g>
<g>
</g>
</svg>
